<?xml version="1.0" encoding="utf-8"?>
<!-- Generator: Adobe Illustrator 23.0.5, SVG Export Plug-In . SVG Version: 6.00 Build 0)  -->
<svg version="1.1" id="Capa_1" xmlns="http://www.w3.org/2000/svg" xmlns:xlink="http://www.w3.org/1999/xlink" x="0px" y="0px"
	 viewBox="0 0 192.7 192.7" style="enable-background:new 0 0 192.7 192.7;" xml:space="preserve">
<style type="text/css">
	.st0{fill:#FFFFFF;}
</style>
<g>
	<g id="Double_Chevron_Right">
		<path class="st0" d="M104.9,188.5l84.2-83c4.7-4.7,4.7-12.3,0-17s-12.4-4.7-17.2,0L96.3,163L20.7,88.5c-4.7-4.7-12.4-4.7-17.2,0
			s-4.7,12.3,0,17l84.2,83C92.3,193,100.4,193.1,104.9,188.5z"/>
		<path class="st0" d="M104.9,104.3l84.2-83c4.7-4.7,4.7-12.3,0-17s-12.4-4.7-17.2,0L96.3,78.8L20.7,4.3C16-0.4,8.3-0.4,3.6,4.3
			s-4.7,12.3,0,17l84.2,83C92.3,108.8,100.4,108.8,104.9,104.3z"/>
	</g>
</g>
</svg>
